<svg id="Layer_1" data-name="Layer 1" xmlns="http://www.w3.org/2000/svg" xmlns:xlink="http://www.w3.org/1999/xlink" viewBox="0 0 150.14 174.75"><defs><style>.cls-1{fill:url(#linear-gradient);}.cls-2{fill:url(#linear-gradient-2);}.cls-3{fill:url(#linear-gradient-3);}</style><linearGradient id="linear-gradient" x1="119.97" y1="78.67" x2="30.61" y2="78.67" gradientUnits="userSpaceOnUse"><stop offset="0" stop-color="#dd76f4"/><stop offset="1" stop-color="#38dfcc"/></linearGradient><linearGradient id="linear-gradient-2" x1="100.07" y1="97.54" x2="12.44" y2="60.34" gradientUnits="userSpaceOnUse"><stop offset="0" stop-color="#7973eb"/><stop offset="1" stop-color="#38dfcc"/></linearGradient><linearGradient id="linear-gradient-3" x1="60.78" y1="67.36" x2="150.14" y2="67.36" gradientUnits="userSpaceOnUse"><stop offset="0" stop-color="#aa76f4"/><stop offset="1" stop-color="#38dfcc"/></linearGradient></defs><path class="cls-1" d="M89.62,41.78c-7.88-25.54-20.78-25.54-28.66,0L32.27,134.72h86Z"/><path class="cls-2" d="M30.35,19.16.68,115.29A15,15,0,0,0,15,134.72H74.35a15,15,0,0,0,14.34-19.43L59,19.16C51.13-6.39,38.23-6.39,30.35,19.16Z"/><path class="cls-3" d="M91.13,19.16,61.45,115.29a15,15,0,0,0,14.34,19.43h59.34a15,15,0,0,0,14.33-19.43L119.79,19.16C111.91-6.39,99-6.39,91.13,19.16Z"/></svg>