<?xml version="1.0" encoding="UTF-8"?><svg xmlns="http://www.w3.org/2000/svg" xmlns:xlink="http://www.w3.org/1999/xlink" viewBox="0 0 901.11 136.99"><defs><style>.g{fill:url(#f);}.h{fill:#12b8fa;}.i{fill:url(#d);}.j{fill:url(#e);}.k{fill:#5e91e5;}</style><linearGradient id="d" x1="119.97" y1="78.67" x2="30.61" y2="78.67" gradientTransform="matrix(1, 0, 0, 1, 0, 0)" gradientUnits="userSpaceOnUse"><stop offset="0" stop-color="#dd76f4"/><stop offset="1" stop-color="#38dfcc"/></linearGradient><linearGradient id="e" x1="100.07" y1="97.54" x2="12.44" y2="60.34" gradientTransform="matrix(1, 0, 0, 1, 0, 0)" gradientUnits="userSpaceOnUse"><stop offset="0" stop-color="#7973eb"/><stop offset="1" stop-color="#38dfcc"/></linearGradient><linearGradient id="f" x1="60.78" y1="67.36" x2="150.14" y2="67.36" gradientTransform="matrix(1, 0, 0, 1, 0, 0)" gradientUnits="userSpaceOnUse"><stop offset="0" stop-color="#aa76f4"/><stop offset="1" stop-color="#38dfcc"/></linearGradient></defs><g id="a"/><g id="b"><g id="c"><path class="i" d="M89.62,41.78c-7.88-25.54-20.78-25.54-28.67,0l-28.68,92.94H118.31l-28.68-92.94Z"/><path class="j" d="M30.35,19.16L.68,115.29c-2.98,9.65,4.24,19.42,14.33,19.42h59.34c10.1,0,17.31-9.78,14.33-19.42L59.02,19.16c-7.88-25.54-20.78-25.54-28.67,0Z"/><path class="g" d="M91.13,19.16l-29.67,96.14c-2.98,9.65,4.24,19.42,14.33,19.42h59.34c10.1,0,17.31-9.78,14.33-19.42L119.79,19.16c-7.88-25.54-20.78-25.54-28.67,0Z"/><g><path class="k" d="M178.81,95.48V40.94h14.42v9.62h.64c1.14-3.2,3.03-5.72,5.68-7.56s5.82-2.77,9.52-2.77,6.92,.93,9.55,2.79c2.63,1.86,4.38,4.37,5.26,7.55h.57c1.11-3.12,3.13-5.63,6.05-7.51,2.92-1.88,6.39-2.82,10.39-2.82,5.09,0,9.23,1.62,12.41,4.85,3.18,3.23,4.78,7.81,4.78,13.73v36.68h-15.09V61.78c0-3.03-.81-5.3-2.42-6.82-1.61-1.51-3.62-2.27-6.04-2.27-2.75,0-4.89,.87-6.43,2.61-1.54,1.74-2.31,4.03-2.31,6.87v33.31h-14.67V61.46c0-2.67-.76-4.81-2.29-6.39-1.53-1.59-3.53-2.38-6.02-2.38-1.68,0-3.19,.42-4.53,1.26-1.34,.84-2.4,2.01-3.18,3.52-.78,1.5-1.17,3.26-1.17,5.27v32.74h-15.13Z"/><path class="k" d="M285.56,96.51c-3.48,0-6.58-.61-9.3-1.83-2.72-1.22-4.87-3.03-6.45-5.43-1.57-2.4-2.36-5.4-2.36-9,0-3.03,.56-5.58,1.67-7.63,1.11-2.06,2.63-3.72,4.55-4.97,1.92-1.25,4.1-2.2,6.55-2.84s5.02-1.09,7.72-1.35c3.17-.33,5.73-.64,7.67-.94,1.94-.3,3.35-.74,4.23-1.33,.88-.59,1.31-1.47,1.31-2.63v-.21c0-2.25-.7-3.99-2.11-5.22-1.41-1.23-3.4-1.85-5.98-1.85-2.72,0-4.89,.6-6.5,1.79-1.61,1.2-2.68,2.69-3.2,4.49l-13.99-1.14c.71-3.31,2.11-6.18,4.19-8.61,2.08-2.43,4.78-4.3,8.08-5.61,3.3-1.31,7.13-1.97,11.49-1.97,3.03,0,5.94,.36,8.72,1.07,2.78,.71,5.26,1.81,7.42,3.3,2.17,1.49,3.88,3.4,5.13,5.73,1.25,2.33,1.88,5.12,1.88,8.36v36.79h-14.35v-7.56h-.43c-.88,1.7-2.05,3.2-3.52,4.49-1.47,1.29-3.23,2.3-5.29,3.02-2.06,.72-4.44,1.08-7.14,1.08Zm4.33-10.44c2.23,0,4.19-.44,5.9-1.33s3.04-2.09,4.01-3.6c.97-1.51,1.46-3.23,1.46-5.15v-5.79c-.47,.31-1.12,.59-1.94,.83s-1.73,.47-2.75,.67c-1.02,.2-2.04,.38-3.05,.53-1.02,.15-1.94,.29-2.77,.41-1.78,.26-3.33,.67-4.65,1.24-1.33,.57-2.36,1.33-3.09,2.29-.73,.96-1.1,2.15-1.1,3.57,0,2.06,.75,3.63,2.25,4.71,1.5,1.08,3.42,1.62,5.74,1.62Z"/><path class="k" d="M352.6,117.07c-4.9,0-9.1-.67-12.59-2.01-3.49-1.34-6.27-3.15-8.33-5.45-2.06-2.3-3.4-4.88-4.01-7.74l13.99-1.88c.43,1.09,1.1,2.11,2.02,3.05,.92,.95,2.15,1.71,3.68,2.29,1.53,.58,3.39,.87,5.59,.87,3.29,0,6.01-.8,8.15-2.4,2.14-1.6,3.21-4.27,3.21-8.01v-9.98h-.64c-.66,1.52-1.66,2.95-2.98,4.3-1.33,1.35-3.03,2.45-5.11,3.3-2.08,.85-4.57,1.28-7.46,1.28-4.1,0-7.82-.95-11.17-2.86-3.35-1.91-6.01-4.83-7.99-8.77-1.98-3.94-2.97-8.93-2.97-14.97s1.01-11.34,3.02-15.48c2.01-4.14,4.69-7.24,8.04-9.3,3.35-2.06,7.02-3.09,11.03-3.09,3.05,0,5.61,.52,7.67,1.54,2.06,1.03,3.72,2.31,4.99,3.84,1.27,1.53,2.24,3.02,2.93,4.49h.57v-9.16h15.02v55.08c0,4.64-1.14,8.52-3.41,11.65-2.27,3.12-5.42,5.47-9.43,7.05-4.01,1.57-8.62,2.36-13.83,2.36Zm.32-33.74c2.44,0,4.5-.61,6.2-1.83,1.69-1.22,2.99-2.97,3.91-5.26,.91-2.28,1.37-5.02,1.37-8.22s-.45-5.97-1.35-8.33c-.9-2.36-2.2-4.18-3.91-5.49-1.7-1.3-3.78-1.95-6.21-1.95s-4.58,.67-6.29,2.01c-1.7,1.34-3,3.19-3.87,5.56-.88,2.37-1.31,5.1-1.31,8.2s.44,5.87,1.33,8.15,2.18,4.05,3.87,5.29c1.69,1.24,3.78,1.86,6.27,1.86Z"/><path class="k" d="M416.2,96.55c-5.61,0-10.44-1.14-14.47-3.43-4.04-2.28-7.14-5.53-9.32-9.73-2.18-4.2-3.27-9.18-3.27-14.93s1.09-10.53,3.27-14.77c2.18-4.24,5.25-7.54,9.22-9.91,3.97-2.37,8.62-3.55,13.97-3.55,3.6,0,6.95,.57,10.07,1.72s5.84,2.87,8.17,5.17c2.33,2.3,4.15,5.18,5.45,8.65,1.3,3.47,1.95,7.52,1.95,12.16v4.15h-46.06v-9.38h31.82c0-2.18-.47-4.11-1.42-5.79-.95-1.68-2.25-3-3.92-3.96s-3.6-1.44-5.81-1.44-4.33,.53-6.09,1.58c-1.76,1.05-3.14,2.46-4.14,4.23s-1.5,3.72-1.53,5.88v8.91c0,2.7,.5,5.03,1.51,7,1.01,1.97,2.43,3.48,4.28,4.55s4.04,1.6,6.57,1.6c1.68,0,3.22-.24,4.62-.71,1.4-.47,2.59-1.18,3.59-2.13,.99-.95,1.75-2.11,2.27-3.48l13.99,.92c-.71,3.36-2.16,6.29-4.35,8.79-2.19,2.5-5.01,4.44-8.45,5.82-3.44,1.39-7.42,2.08-11.91,2.08Z"/><path class="h" d="M451.11,95.48V40.94h14.42v9.62h.64c1.14-3.2,3.03-5.72,5.68-7.56s5.82-2.77,9.52-2.77,6.92,.93,9.55,2.79c2.63,1.86,4.38,4.37,5.26,7.55h.57c1.11-3.12,3.13-5.63,6.05-7.51,2.92-1.88,6.39-2.82,10.39-2.82,5.09,0,9.23,1.62,12.41,4.85,3.18,3.23,4.78,7.81,4.78,13.73v36.68h-15.09V61.78c0-3.03-.81-5.3-2.42-6.82-1.61-1.51-3.62-2.27-6.04-2.27-2.75,0-4.89,.87-6.43,2.61-1.54,1.74-2.31,4.03-2.31,6.87v33.31h-14.67V61.46c0-2.67-.76-4.81-2.29-6.39-1.53-1.59-3.53-2.38-6.02-2.38-1.68,0-3.19,.42-4.53,1.26-1.34,.84-2.4,2.01-3.18,3.52-.78,1.5-1.17,3.26-1.17,5.27v32.74h-15.13Z"/><path class="h" d="M557.86,96.51c-3.48,0-6.58-.61-9.3-1.83-2.72-1.22-4.87-3.03-6.45-5.43-1.58-2.4-2.36-5.4-2.36-9,0-3.03,.56-5.58,1.67-7.63,1.11-2.06,2.63-3.72,4.54-4.97,1.92-1.25,4.1-2.2,6.55-2.84s5.03-1.09,7.72-1.35c3.17-.33,5.73-.64,7.67-.94,1.94-.3,3.35-.74,4.23-1.33,.88-.59,1.31-1.47,1.31-2.63v-.21c0-2.25-.71-3.99-2.11-5.22-1.41-1.23-3.4-1.85-5.98-1.85-2.72,0-4.89,.6-6.5,1.79-1.61,1.2-2.67,2.69-3.2,4.49l-13.99-1.14c.71-3.31,2.11-6.18,4.19-8.61s4.78-4.3,8.08-5.61,7.13-1.97,11.49-1.97c3.03,0,5.94,.36,8.72,1.07,2.78,.71,5.26,1.81,7.42,3.3,2.17,1.49,3.88,3.4,5.13,5.73,1.25,2.33,1.88,5.12,1.88,8.36v36.79h-14.35v-7.56h-.43c-.88,1.7-2.05,3.2-3.52,4.49-1.47,1.29-3.23,2.3-5.29,3.02-2.06,.72-4.44,1.08-7.14,1.08Zm4.33-10.44c2.23,0,4.19-.44,5.9-1.33,1.7-.89,3.04-2.09,4.01-3.6,.97-1.51,1.46-3.23,1.46-5.15v-5.79c-.47,.31-1.12,.59-1.94,.83s-1.73,.47-2.75,.67c-1.02,.2-2.04,.38-3.05,.53-1.02,.15-1.94,.29-2.77,.41-1.78,.26-3.33,.67-4.65,1.24-1.33,.57-2.36,1.33-3.09,2.29-.73,.96-1.1,2.15-1.1,3.57,0,2.06,.75,3.63,2.25,4.71,1.5,1.08,3.41,1.62,5.73,1.62Z"/><path class="h" d="M615.46,63.95v31.53h-15.13V40.94h14.42v9.62h.64c1.21-3.17,3.23-5.69,6.07-7.55,2.84-1.86,6.29-2.79,10.33-2.79,3.79,0,7.09,.83,9.91,2.49,2.82,1.66,5.01,4.02,6.57,7.08,1.56,3.07,2.34,6.72,2.34,10.96v34.73h-15.13V63.45c.02-3.34-.83-5.95-2.56-7.83-1.73-1.88-4.11-2.82-7.14-2.82-2.04,0-3.83,.44-5.38,1.31-1.55,.88-2.76,2.15-3.62,3.82s-1.31,3.68-1.33,6.02Z"/><path class="h" d="M678.06,96.51c-3.48,0-6.58-.61-9.3-1.83-2.72-1.22-4.87-3.03-6.45-5.43-1.58-2.4-2.36-5.4-2.36-9,0-3.03,.56-5.58,1.67-7.63,1.11-2.06,2.63-3.72,4.54-4.97,1.92-1.25,4.1-2.2,6.55-2.84s5.03-1.09,7.72-1.35c3.17-.33,5.73-.64,7.67-.94,1.94-.3,3.35-.74,4.23-1.33,.88-.59,1.31-1.47,1.31-2.63v-.21c0-2.25-.71-3.99-2.11-5.22-1.41-1.23-3.4-1.85-5.98-1.85-2.72,0-4.89,.6-6.5,1.79-1.61,1.2-2.67,2.69-3.2,4.49l-13.99-1.14c.71-3.31,2.11-6.18,4.19-8.61s4.78-4.3,8.08-5.61,7.13-1.97,11.49-1.97c3.03,0,5.94,.36,8.72,1.07,2.78,.71,5.26,1.81,7.42,3.3,2.17,1.49,3.88,3.4,5.13,5.73,1.25,2.33,1.88,5.12,1.88,8.36v36.79h-14.35v-7.56h-.43c-.88,1.7-2.05,3.2-3.52,4.49-1.47,1.29-3.23,2.3-5.29,3.02-2.06,.72-4.44,1.08-7.14,1.08Zm4.33-10.44c2.23,0,4.19-.44,5.9-1.33,1.7-.89,3.04-2.09,4.01-3.6,.97-1.51,1.46-3.23,1.46-5.15v-5.79c-.47,.31-1.12,.59-1.94,.83s-1.73,.47-2.75,.67c-1.02,.2-2.04,.38-3.05,.53-1.02,.15-1.94,.29-2.77,.41-1.78,.26-3.33,.67-4.65,1.24-1.33,.57-2.36,1.33-3.09,2.29-.73,.96-1.1,2.15-1.1,3.57,0,2.06,.75,3.63,2.25,4.71,1.5,1.08,3.41,1.62,5.73,1.62Z"/><path class="h" d="M745.11,117.07c-4.9,0-9.1-.67-12.59-2.01-3.49-1.34-6.27-3.15-8.33-5.45s-3.4-4.88-4.01-7.74l13.99-1.88c.43,1.09,1.1,2.11,2.02,3.05,.92,.95,2.15,1.71,3.68,2.29,1.53,.58,3.39,.87,5.59,.87,3.29,0,6.01-.8,8.15-2.4,2.14-1.6,3.21-4.27,3.21-8.01v-9.98h-.64c-.66,1.52-1.66,2.95-2.98,4.3-1.33,1.35-3.03,2.45-5.11,3.3-2.08,.85-4.57,1.28-7.46,1.28-4.1,0-7.82-.95-11.17-2.86-3.35-1.91-6.01-4.83-7.99-8.77s-2.96-8.93-2.96-14.97,1.01-11.34,3.02-15.48c2.01-4.14,4.69-7.24,8.04-9.3,3.35-2.06,7.03-3.09,11.03-3.09,3.05,0,5.61,.52,7.67,1.54s3.72,2.31,4.99,3.84c1.27,1.53,2.24,3.02,2.93,4.49h.57v-9.16h15.02v55.08c0,4.64-1.14,8.52-3.41,11.65-2.27,3.12-5.42,5.47-9.43,7.05-4.01,1.57-8.62,2.36-13.83,2.36Zm.32-33.74c2.44,0,4.5-.61,6.2-1.83,1.69-1.22,3-2.97,3.91-5.26,.91-2.28,1.37-5.02,1.37-8.22s-.45-5.97-1.35-8.33c-.9-2.36-2.2-4.18-3.91-5.49-1.7-1.3-3.78-1.95-6.21-1.95s-4.58,.67-6.29,2.01c-1.7,1.34-3,3.19-3.87,5.56-.88,2.37-1.31,5.1-1.31,8.2s.44,5.87,1.33,8.15,2.18,4.05,3.87,5.29c1.69,1.24,3.78,1.86,6.27,1.86Z"/><path class="h" d="M808.71,96.55c-5.61,0-10.43-1.14-14.47-3.43s-7.14-5.53-9.32-9.73c-2.18-4.2-3.27-9.18-3.27-14.93s1.09-10.53,3.27-14.77c2.18-4.24,5.25-7.54,9.21-9.91,3.96-2.37,8.62-3.55,13.97-3.55,3.6,0,6.95,.57,10.07,1.72s5.84,2.87,8.17,5.17c2.33,2.3,4.15,5.18,5.45,8.65,1.3,3.47,1.95,7.52,1.95,12.16v4.15h-46.06v-9.38h31.82c0-2.18-.47-4.11-1.42-5.79-.95-1.68-2.25-3-3.92-3.96s-3.6-1.44-5.81-1.44-4.33,.53-6.09,1.58c-1.76,1.05-3.14,2.46-4.14,4.23s-1.5,3.72-1.53,5.88v8.91c0,2.7,.5,5.03,1.51,7,1.01,1.97,2.43,3.48,4.28,4.55s4.04,1.6,6.57,1.6c1.68,0,3.22-.24,4.62-.71,1.4-.47,2.59-1.18,3.59-2.13,.99-.95,1.75-2.11,2.27-3.48l13.99,.92c-.71,3.36-2.16,6.29-4.35,8.79-2.19,2.5-5.01,4.44-8.45,5.82-3.44,1.39-7.42,2.08-11.91,2.08Z"/><path class="h" d="M863.71,96.37c-4.14,0-7.89-1.07-11.24-3.21-3.35-2.14-6-5.3-7.96-9.48-1.95-4.18-2.93-9.31-2.93-15.39s1.01-11.45,3.02-15.61c2.01-4.15,4.69-7.27,8.04-9.34,3.35-2.07,7.03-3.11,11.03-3.11,3.05,0,5.6,.52,7.65,1.54,2.05,1.03,3.7,2.31,4.97,3.84,1.27,1.53,2.23,3.02,2.89,4.49h.46V22.76h15.09V95.48h-14.91v-8.74h-.64c-.71,1.52-1.71,3.01-3,4.49-1.29,1.48-2.96,2.71-5.01,3.68-2.05,.97-4.54,1.46-7.47,1.46Zm4.79-12.04c2.44,0,4.5-.67,6.2-2.01s3-3.21,3.91-5.63c.91-2.41,1.37-5.24,1.37-8.49s-.45-6.06-1.35-8.45c-.9-2.39-2.2-4.24-3.91-5.54-1.7-1.3-3.78-1.95-6.21-1.95s-4.58,.67-6.29,2.02c-1.7,1.35-3,3.22-3.87,5.61-.88,2.39-1.31,5.16-1.31,8.31s.44,5.97,1.33,8.4c.89,2.43,2.18,4.32,3.87,5.68,1.69,1.36,3.78,2.04,6.27,2.04Z"/></g><g><path class="h" d="M404.23,127.4v-16.36h4.33v2.89h.19c.34-.96,.91-1.72,1.7-2.27,.8-.55,1.75-.83,2.85-.83s2.08,.28,2.87,.84c.79,.56,1.31,1.31,1.58,2.26h.17c.33-.94,.94-1.69,1.82-2.25,.88-.56,1.92-.85,3.12-.85,1.53,0,2.77,.48,3.72,1.45,.96,.97,1.43,2.34,1.43,4.12v11h-4.53v-10.11c0-.91-.24-1.59-.72-2.05-.48-.45-1.09-.68-1.81-.68-.82,0-1.47,.26-1.93,.78-.46,.52-.69,1.21-.69,2.06v9.99h-4.4v-10.21c0-.8-.23-1.44-.69-1.92-.46-.48-1.06-.71-1.81-.71-.5,0-.96,.13-1.36,.38s-.72,.6-.95,1.05-.35,.98-.35,1.58v9.82h-4.54Z"/><path class="h" d="M436.25,127.71c-1.04,0-1.97-.18-2.79-.55s-1.46-.91-1.93-1.63-.71-1.62-.71-2.7c0-.91,.17-1.67,.5-2.29,.33-.62,.79-1.11,1.36-1.49,.58-.38,1.23-.66,1.97-.85,.73-.19,1.51-.33,2.32-.4,.95-.1,1.72-.19,2.3-.28,.58-.09,1-.22,1.27-.4,.26-.18,.39-.44,.39-.79v-.06c0-.67-.21-1.2-.63-1.57-.42-.37-1.02-.55-1.79-.55-.82,0-1.47,.18-1.95,.54-.48,.36-.8,.81-.96,1.35l-4.2-.34c.21-.99,.63-1.86,1.26-2.58s1.43-1.29,2.42-1.68c.99-.39,2.14-.59,3.45-.59,.91,0,1.78,.11,2.62,.32,.83,.21,1.58,.54,2.23,.99,.65,.45,1.16,1.02,1.54,1.72,.38,.7,.56,1.54,.56,2.51v11.04h-4.3v-2.27h-.13c-.26,.51-.61,.96-1.05,1.35s-.97,.69-1.59,.91c-.62,.22-1.33,.33-2.14,.33Zm1.3-3.13c.67,0,1.26-.13,1.77-.4s.91-.63,1.2-1.08c.29-.45,.44-.97,.44-1.54v-1.74c-.14,.09-.34,.18-.58,.25s-.52,.14-.83,.2c-.31,.06-.61,.11-.92,.16-.31,.05-.58,.09-.83,.12-.53,.08-1,.2-1.4,.37-.4,.17-.71,.4-.93,.69-.22,.29-.33,.64-.33,1.07,0,.62,.23,1.09,.68,1.41,.45,.32,1.02,.48,1.72,.48Z"/><path class="h" d="M453.53,117.94v9.46h-4.54v-16.36h4.33v2.89h.19c.36-.95,.97-1.71,1.82-2.26,.85-.56,1.89-.84,3.1-.84,1.14,0,2.13,.25,2.97,.75s1.5,1.21,1.97,2.13,.7,2.02,.7,3.29v10.42h-4.54v-9.61c0-1-.25-1.78-.77-2.35s-1.23-.85-2.14-.85c-.61,0-1.15,.13-1.61,.39s-.83,.64-1.09,1.15c-.26,.5-.39,1.1-.4,1.81Z"/><path class="h" d="M472.31,127.71c-1.04,0-1.97-.18-2.79-.55-.82-.37-1.46-.91-1.93-1.63-.47-.72-.71-1.62-.71-2.7,0-.91,.17-1.67,.5-2.29,.33-.62,.79-1.11,1.36-1.49s1.23-.66,1.97-.85c.73-.19,1.51-.33,2.32-.4,.95-.1,1.72-.19,2.3-.28,.58-.09,1-.22,1.27-.4,.26-.18,.39-.44,.39-.79v-.06c0-.67-.21-1.2-.63-1.57-.42-.37-1.02-.55-1.79-.55-.82,0-1.47,.18-1.95,.54-.48,.36-.8,.81-.96,1.35l-4.2-.34c.21-.99,.63-1.86,1.26-2.58s1.43-1.29,2.42-1.68,2.14-.59,3.45-.59c.91,0,1.78,.11,2.62,.32,.83,.21,1.58,.54,2.23,.99,.65,.45,1.16,1.02,1.54,1.72,.38,.7,.56,1.54,.56,2.51v11.04h-4.3v-2.27h-.13c-.26,.51-.61,.96-1.05,1.35s-.97,.69-1.59,.91c-.62,.22-1.33,.33-2.14,.33Zm1.3-3.13c.67,0,1.26-.13,1.77-.4,.51-.27,.91-.63,1.2-1.08,.29-.45,.44-.97,.44-1.54v-1.74c-.14,.09-.33,.18-.58,.25s-.52,.14-.83,.2c-.3,.06-.61,.11-.92,.16-.31,.05-.58,.09-.83,.12-.53,.08-1,.2-1.4,.37-.4,.17-.71,.4-.93,.69s-.33,.64-.33,1.07c0,.62,.23,1.09,.68,1.41,.45,.32,1.02,.48,1.72,.48Z"/><path class="h" d="M492.43,133.88c-1.47,0-2.73-.2-3.78-.6-1.05-.4-1.88-.95-2.5-1.64-.62-.69-1.02-1.46-1.2-2.32l4.2-.56c.13,.33,.33,.63,.61,.92,.28,.28,.64,.51,1.1,.69,.46,.17,1.02,.26,1.68,.26,.99,0,1.8-.24,2.45-.72,.64-.48,.96-1.28,.96-2.4v-2.99h-.19c-.2,.45-.5,.88-.9,1.29-.4,.41-.91,.74-1.53,.99-.62,.26-1.37,.38-2.24,.38-1.23,0-2.35-.29-3.35-.86s-1.8-1.45-2.4-2.63c-.59-1.18-.89-2.68-.89-4.49s.3-3.4,.91-4.65c.6-1.24,1.41-2.17,2.41-2.79,1-.62,2.11-.93,3.31-.93,.92,0,1.68,.15,2.3,.46s1.12,.69,1.5,1.15c.38,.46,.67,.91,.88,1.35h.17v-2.75h4.51v16.52c0,1.39-.34,2.56-1.02,3.49-.68,.94-1.62,1.64-2.83,2.11-1.2,.47-2.59,.71-4.15,.71Zm.1-10.12c.73,0,1.35-.18,1.86-.55s.9-.89,1.17-1.58c.27-.69,.41-1.51,.41-2.47s-.14-1.79-.41-2.5c-.27-.71-.66-1.26-1.17-1.65-.51-.39-1.13-.59-1.86-.59s-1.37,.2-1.89,.6c-.51,.4-.9,.96-1.16,1.67-.26,.71-.39,1.53-.39,2.46s.13,1.76,.4,2.44c.27,.69,.65,1.21,1.16,1.59,.51,.37,1.13,.56,1.88,.56Z"/><path class="h" d="M511.51,127.72c-1.68,0-3.13-.34-4.34-1.03-1.21-.69-2.14-1.66-2.8-2.92-.65-1.26-.98-2.75-.98-4.48s.33-3.16,.98-4.43c.65-1.27,1.57-2.26,2.76-2.97,1.19-.71,2.59-1.07,4.19-1.07,1.08,0,2.09,.17,3.02,.52,.93,.34,1.75,.86,2.45,1.55s1.25,1.55,1.64,2.59c.39,1.04,.59,2.26,.59,3.65v1.25h-13.82v-2.81h9.55c0-.65-.14-1.23-.43-1.74-.28-.5-.68-.9-1.18-1.19s-1.08-.43-1.74-.43-1.3,.16-1.83,.47c-.53,.32-.94,.74-1.24,1.27-.3,.53-.45,1.12-.46,1.76v2.67c0,.81,.15,1.51,.45,2.1s.73,1.04,1.28,1.36c.55,.32,1.21,.48,1.97,.48,.5,0,.97-.07,1.38-.21s.78-.35,1.08-.64,.53-.63,.68-1.04l4.2,.28c-.21,1.01-.65,1.89-1.3,2.64-.66,.75-1.5,1.33-2.54,1.75-1.03,.42-2.23,.62-3.57,.62Z"/><path class="h" d="M537.64,111.04v3.41h-9.85v-3.41h9.85Zm-7.62-3.92h4.54v15.26c0,.42,.06,.74,.19,.97,.13,.23,.31,.39,.54,.48s.5,.14,.8,.14c.21,0,.43-.02,.64-.06s.38-.07,.49-.09l.71,3.38c-.23,.07-.55,.15-.96,.25-.41,.1-.91,.15-1.5,.18-1.09,.04-2.05-.1-2.87-.44-.82-.33-1.46-.85-1.91-1.56-.46-.7-.68-1.59-.67-2.66v-15.85Z"/><path class="h" d="M545.47,117.94v9.46h-4.54v-21.82h4.41v8.34h.19c.37-.97,.96-1.72,1.79-2.27s1.86-.83,3.1-.83c1.14,0,2.13,.25,2.98,.74s1.51,1.2,1.98,2.12c.47,.92,.71,2.02,.7,3.3v10.42h-4.54v-9.61c0-1.01-.25-1.79-.76-2.35s-1.23-.84-2.16-.84c-.62,0-1.16,.13-1.63,.39-.47,.26-.84,.64-1.11,1.15-.27,.5-.4,1.1-.41,1.81Z"/><path class="h" d="M567.12,127.72c-1.68,0-3.13-.34-4.34-1.03-1.21-.69-2.14-1.66-2.8-2.92s-.98-2.75-.98-4.48,.33-3.16,.98-4.43,1.58-2.26,2.76-2.97c1.19-.71,2.59-1.07,4.19-1.07,1.08,0,2.09,.17,3.02,.52,.93,.34,1.75,.86,2.45,1.55,.7,.69,1.24,1.55,1.63,2.59,.39,1.04,.59,2.26,.59,3.65v1.25h-13.82v-2.81h9.55c0-.65-.14-1.23-.43-1.74-.28-.5-.68-.9-1.18-1.19-.5-.29-1.08-.43-1.74-.43s-1.3,.16-1.83,.47-.94,.74-1.24,1.27c-.3,.53-.45,1.12-.46,1.76v2.67c0,.81,.15,1.51,.45,2.1s.73,1.04,1.28,1.36c.55,.32,1.21,.48,1.97,.48,.5,0,.96-.07,1.38-.21,.42-.14,.78-.35,1.08-.64,.3-.28,.53-.63,.68-1.04l4.2,.28c-.21,1.01-.65,1.89-1.3,2.64-.66,.75-1.5,1.33-2.54,1.75s-2.22,.62-3.57,.62Z"/><path class="k" d="M584.54,127.4v-16.36h4.33v2.89h.19c.34-.96,.91-1.72,1.71-2.27,.79-.55,1.75-.83,2.85-.83s2.08,.28,2.87,.84,1.31,1.31,1.58,2.26h.17c.33-.94,.94-1.69,1.82-2.25,.88-.56,1.92-.85,3.12-.85,1.53,0,2.77,.48,3.72,1.45,.96,.97,1.43,2.34,1.43,4.12v11h-4.53v-10.11c0-.91-.24-1.59-.72-2.05-.48-.45-1.09-.68-1.81-.68-.82,0-1.47,.26-1.93,.78-.46,.52-.69,1.21-.69,2.06v9.99h-4.4v-10.21c0-.8-.23-1.44-.69-1.92-.46-.48-1.06-.71-1.81-.71-.5,0-.96,.13-1.36,.38s-.72,.6-.95,1.05-.35,.98-.35,1.58v9.82h-4.54Z"/><path class="k" d="M616.57,127.71c-1.04,0-1.97-.18-2.79-.55-.82-.37-1.46-.91-1.93-1.63-.47-.72-.71-1.62-.71-2.7,0-.91,.17-1.67,.5-2.29,.33-.62,.79-1.11,1.36-1.49,.58-.38,1.23-.66,1.97-.85s1.51-.33,2.32-.4c.95-.1,1.72-.19,2.3-.28s1-.22,1.27-.4c.26-.18,.39-.44,.39-.79v-.06c0-.67-.21-1.2-.63-1.57s-1.02-.55-1.79-.55c-.82,0-1.47,.18-1.95,.54-.48,.36-.8,.81-.96,1.35l-4.2-.34c.21-.99,.63-1.86,1.26-2.58s1.43-1.29,2.42-1.68c.99-.39,2.14-.59,3.45-.59,.91,0,1.78,.11,2.62,.32,.83,.21,1.58,.54,2.23,.99,.65,.45,1.16,1.02,1.54,1.72,.38,.7,.56,1.54,.56,2.51v11.04h-4.3v-2.27h-.13c-.26,.51-.61,.96-1.05,1.35s-.97,.69-1.59,.91c-.62,.22-1.33,.33-2.14,.33Zm1.3-3.13c.67,0,1.26-.13,1.77-.4,.51-.27,.91-.63,1.2-1.08,.29-.45,.44-.97,.44-1.54v-1.74c-.14,.09-.34,.18-.58,.25s-.52,.14-.83,.2c-.31,.06-.61,.11-.92,.16-.31,.05-.58,.09-.83,.12-.53,.08-1,.2-1.4,.37-.4,.17-.71,.4-.93,.69-.22,.29-.33,.64-.33,1.07,0,.62,.23,1.09,.68,1.41,.45,.32,1.02,.48,1.72,.48Z"/><path class="k" d="M636.68,133.88c-1.47,0-2.73-.2-3.78-.6-1.05-.4-1.88-.95-2.5-1.64-.62-.69-1.02-1.46-1.2-2.32l4.2-.56c.13,.33,.33,.63,.61,.92,.28,.28,.64,.51,1.1,.69,.46,.17,1.02,.26,1.68,.26,.99,0,1.8-.24,2.45-.72,.64-.48,.96-1.28,.96-2.4v-2.99h-.19c-.2,.45-.5,.88-.89,1.29-.4,.41-.91,.74-1.53,.99-.62,.26-1.37,.38-2.24,.38-1.23,0-2.35-.29-3.35-.86s-1.8-1.45-2.4-2.63c-.59-1.18-.89-2.68-.89-4.49s.3-3.4,.91-4.65c.6-1.24,1.41-2.17,2.41-2.79,1-.62,2.11-.93,3.31-.93,.92,0,1.68,.15,2.3,.46,.62,.31,1.12,.69,1.5,1.15,.38,.46,.67,.91,.88,1.35h.17v-2.75h4.51v16.52c0,1.39-.34,2.56-1.02,3.49s-1.62,1.64-2.83,2.11c-1.2,.47-2.59,.71-4.15,.71Zm.1-10.12c.73,0,1.35-.18,1.86-.55s.9-.89,1.17-1.58c.27-.69,.41-1.51,.41-2.47s-.13-1.79-.4-2.5c-.27-.71-.66-1.26-1.17-1.65-.51-.39-1.13-.59-1.86-.59s-1.38,.2-1.89,.6c-.51,.4-.9,.96-1.16,1.67-.26,.71-.39,1.53-.39,2.46s.13,1.76,.4,2.44,.65,1.21,1.16,1.59c.51,.37,1.13,.56,1.88,.56Z"/><path class="k" d="M650.58,108.93c-.67,0-1.25-.22-1.73-.67-.48-.45-.72-.99-.72-1.62s.24-1.17,.72-1.62c.48-.45,1.06-.68,1.73-.68s1.25,.22,1.73,.67c.48,.45,.72,.99,.72,1.62s-.24,1.17-.72,1.62-1.06,.68-1.73,.68Zm-2.28,18.47v-16.36h4.54v16.36h-4.54Z"/><path class="k" d="M663.86,127.72c-1.68,0-3.12-.36-4.32-1.07s-2.13-1.71-2.77-2.98c-.64-1.27-.96-2.73-.96-4.39s.33-3.15,.97-4.42c.65-1.27,1.58-2.26,2.78-2.97,1.2-.71,2.63-1.07,4.28-1.07,1.43,0,2.68,.26,3.75,.78,1.07,.52,1.92,1.25,2.55,2.18s.97,2.04,1.03,3.3h-4.28c-.12-.82-.44-1.48-.95-1.98-.51-.5-1.19-.75-2.02-.75-.7,0-1.32,.19-1.84,.57-.52,.38-.93,.93-1.22,1.66-.29,.72-.44,1.6-.44,2.63s.14,1.93,.43,2.66c.29,.73,.69,1.29,1.22,1.67,.53,.38,1.14,.58,1.84,.58,.52,0,.99-.11,1.4-.32,.42-.21,.76-.52,1.03-.93,.27-.41,.45-.9,.54-1.48h4.28c-.07,1.25-.41,2.35-1.02,3.3s-1.44,1.69-2.51,2.22-2.33,.8-3.78,.8Z"/></g></g></g></svg>