<?xml version="1.0" encoding="UTF-8"?><svg xmlns="http://www.w3.org/2000/svg" viewBox="0 0 269.86 35.5"><defs><style>.d{fill:#12b8fa;}.e{fill:#5e91e5;}</style></defs><g id="a"/><g id="b"><g id="c"><g><path class="d" d="M1.81,25.91V9.55H6.14v2.89h.19c.34-.96,.91-1.72,1.7-2.27,.8-.55,1.75-.83,2.85-.83s2.08,.28,2.87,.84c.79,.56,1.31,1.31,1.58,2.26h.17c.33-.94,.94-1.69,1.82-2.25,.88-.56,1.92-.85,3.12-.85,1.53,0,2.77,.48,3.72,1.45,.96,.97,1.43,2.34,1.43,4.12v11h-4.53V15.8c0-.91-.24-1.59-.72-2.05-.48-.45-1.09-.68-1.81-.68-.82,0-1.47,.26-1.93,.78-.46,.52-.69,1.21-.69,2.06v9.99h-4.4V15.7c0-.8-.23-1.44-.69-1.92-.46-.48-1.06-.71-1.81-.71-.5,0-.96,.13-1.36,.38s-.72,.6-.95,1.05-.35,.98-.35,1.58v9.82H1.81Z"/><path class="d" d="M33.83,26.22c-1.04,0-1.97-.18-2.79-.55s-1.46-.91-1.93-1.63-.71-1.62-.71-2.7c0-.91,.17-1.67,.5-2.29,.33-.62,.79-1.11,1.36-1.49,.58-.38,1.23-.66,1.97-.85,.73-.19,1.51-.33,2.32-.4,.95-.1,1.72-.19,2.3-.28,.58-.09,1-.22,1.27-.4,.26-.18,.39-.44,.39-.79v-.06c0-.67-.21-1.2-.63-1.57-.42-.37-1.02-.55-1.79-.55-.82,0-1.47,.18-1.95,.54-.48,.36-.8,.81-.96,1.35l-4.2-.34c.21-.99,.63-1.86,1.26-2.58s1.43-1.29,2.42-1.68c.99-.39,2.14-.59,3.45-.59,.91,0,1.78,.11,2.62,.32,.83,.21,1.58,.54,2.23,.99,.65,.45,1.16,1.02,1.54,1.72,.38,.7,.56,1.54,.56,2.51v11.04h-4.3v-2.27h-.13c-.26,.51-.61,.96-1.05,1.35s-.97,.69-1.59,.91c-.62,.22-1.33,.33-2.14,.33Zm1.3-3.13c.67,0,1.26-.13,1.77-.4s.91-.63,1.2-1.08c.29-.45,.44-.97,.44-1.54v-1.74c-.14,.09-.34,.18-.58,.25s-.52,.14-.83,.2c-.31,.06-.61,.11-.92,.16-.31,.05-.58,.09-.83,.12-.53,.08-1,.2-1.4,.37-.4,.17-.71,.4-.93,.69-.22,.29-.33,.64-.33,1.07,0,.62,.23,1.09,.68,1.41,.45,.32,1.02,.48,1.72,.48Z"/><path class="d" d="M51.11,16.45v9.46h-4.54V9.55h4.33v2.89h.19c.36-.95,.97-1.71,1.82-2.26,.85-.56,1.89-.84,3.1-.84,1.14,0,2.13,.25,2.97,.75s1.5,1.21,1.97,2.13,.7,2.02,.7,3.29v10.42h-4.54v-9.61c0-1-.25-1.78-.77-2.35s-1.23-.85-2.14-.85c-.61,0-1.15,.13-1.61,.39s-.83,.64-1.09,1.15c-.26,.5-.39,1.1-.4,1.81Z"/><path class="d" d="M69.9,26.22c-1.04,0-1.97-.18-2.79-.55-.82-.37-1.46-.91-1.93-1.63-.47-.72-.71-1.62-.71-2.7,0-.91,.17-1.67,.5-2.29,.33-.62,.79-1.11,1.36-1.49s1.23-.66,1.97-.85c.73-.19,1.51-.33,2.32-.4,.95-.1,1.72-.19,2.3-.28,.58-.09,1-.22,1.27-.4,.26-.18,.39-.44,.39-.79v-.06c0-.67-.21-1.2-.63-1.57-.42-.37-1.02-.55-1.79-.55-.82,0-1.47,.18-1.95,.54-.48,.36-.8,.81-.96,1.35l-4.2-.34c.21-.99,.63-1.86,1.26-2.58s1.43-1.29,2.42-1.68,2.14-.59,3.45-.59c.91,0,1.78,.11,2.62,.32,.83,.21,1.58,.54,2.23,.99,.65,.45,1.16,1.02,1.54,1.72,.38,.7,.56,1.54,.56,2.51v11.04h-4.3v-2.27h-.13c-.26,.51-.61,.96-1.05,1.35s-.97,.69-1.59,.91c-.62,.22-1.33,.33-2.14,.33Zm1.3-3.13c.67,0,1.26-.13,1.77-.4,.51-.27,.91-.63,1.2-1.08,.29-.45,.44-.97,.44-1.54v-1.74c-.14,.09-.33,.18-.58,.25s-.52,.14-.83,.2c-.3,.06-.61,.11-.92,.16-.31,.05-.58,.09-.83,.12-.53,.08-1,.2-1.4,.37-.4,.17-.71,.4-.93,.69s-.33,.64-.33,1.07c0,.62,.23,1.09,.68,1.41,.45,.32,1.02,.48,1.72,.48Z"/><path class="d" d="M90.01,32.39c-1.47,0-2.73-.2-3.78-.6-1.05-.4-1.88-.95-2.5-1.64-.62-.69-1.02-1.46-1.2-2.32l4.2-.56c.13,.33,.33,.63,.61,.92,.28,.28,.64,.51,1.1,.69,.46,.17,1.02,.26,1.68,.26,.99,0,1.8-.24,2.45-.72,.64-.48,.96-1.28,.96-2.4v-2.99h-.19c-.2,.45-.5,.88-.9,1.29-.4,.41-.91,.74-1.53,.99-.62,.26-1.37,.38-2.24,.38-1.23,0-2.35-.29-3.35-.86s-1.8-1.45-2.4-2.63c-.59-1.18-.89-2.68-.89-4.49s.3-3.4,.91-4.65c.6-1.24,1.41-2.17,2.41-2.79,1-.62,2.11-.93,3.31-.93,.92,0,1.68,.15,2.3,.46s1.12,.69,1.5,1.15c.38,.46,.67,.91,.88,1.35h.17v-2.75h4.51V26.07c0,1.39-.34,2.56-1.02,3.49-.68,.94-1.62,1.64-2.83,2.11-1.2,.47-2.59,.71-4.15,.71Zm.1-10.12c.73,0,1.35-.18,1.86-.55s.9-.89,1.17-1.58c.27-.69,.41-1.51,.41-2.47s-.14-1.79-.41-2.5c-.27-.71-.66-1.26-1.17-1.65-.51-.39-1.13-.59-1.86-.59s-1.37,.2-1.89,.6c-.51,.4-.9,.96-1.16,1.67-.26,.71-.39,1.53-.39,2.46s.13,1.76,.4,2.44c.27,.69,.65,1.21,1.16,1.59,.51,.37,1.13,.56,1.88,.56Z"/><path class="d" d="M109.09,26.23c-1.68,0-3.13-.34-4.34-1.03-1.21-.69-2.14-1.66-2.8-2.92-.65-1.26-.98-2.75-.98-4.48s.33-3.16,.98-4.43c.65-1.27,1.57-2.26,2.76-2.97,1.19-.71,2.59-1.07,4.19-1.07,1.08,0,2.09,.17,3.02,.52,.93,.34,1.75,.86,2.45,1.55s1.25,1.55,1.64,2.59c.39,1.04,.59,2.26,.59,3.65v1.25h-13.82v-2.81h9.55c0-.65-.14-1.23-.43-1.74-.28-.5-.68-.9-1.18-1.19s-1.08-.43-1.74-.43-1.3,.16-1.83,.47c-.53,.32-.94,.74-1.24,1.27-.3,.53-.45,1.12-.46,1.76v2.67c0,.81,.15,1.51,.45,2.1s.73,1.04,1.28,1.36c.55,.32,1.21,.48,1.97,.48,.5,0,.97-.07,1.38-.21s.78-.35,1.08-.64,.53-.63,.68-1.04l4.2,.28c-.21,1.01-.65,1.89-1.3,2.64-.66,.75-1.5,1.33-2.54,1.75-1.03,.42-2.23,.62-3.57,.62Z"/><path class="d" d="M135.22,9.55v3.41h-9.85v-3.41h9.85Zm-7.62-3.92h4.54v15.26c0,.42,.06,.74,.19,.97,.13,.23,.31,.39,.54,.48s.5,.14,.8,.14c.21,0,.43-.02,.64-.06s.38-.07,.49-.09l.71,3.38c-.23,.07-.55,.15-.96,.25-.41,.1-.91,.15-1.5,.18-1.09,.04-2.05-.1-2.87-.44-.82-.33-1.46-.85-1.91-1.56-.46-.7-.68-1.59-.67-2.66V5.62Z"/><path class="d" d="M143.05,16.45v9.46h-4.54V4.09h4.41V12.43h.19c.37-.97,.96-1.72,1.79-2.27s1.86-.83,3.1-.83c1.14,0,2.13,.25,2.98,.74s1.51,1.2,1.98,2.12c.47,.92,.71,2.02,.7,3.3v10.42h-4.54v-9.61c0-1.01-.25-1.79-.76-2.35s-1.23-.84-2.16-.84c-.62,0-1.16,.13-1.63,.39-.47,.26-.84,.64-1.11,1.15-.27,.5-.4,1.1-.41,1.81Z"/><path class="d" d="M164.7,26.23c-1.68,0-3.13-.34-4.34-1.03-1.21-.69-2.14-1.66-2.8-2.92s-.98-2.75-.98-4.48,.33-3.16,.98-4.43,1.58-2.26,2.76-2.97c1.19-.71,2.59-1.07,4.19-1.07,1.08,0,2.09,.17,3.02,.52,.93,.34,1.75,.86,2.45,1.55,.7,.69,1.24,1.55,1.63,2.59,.39,1.04,.59,2.26,.59,3.65v1.25h-13.82v-2.81h9.55c0-.65-.14-1.23-.43-1.74-.28-.5-.68-.9-1.18-1.19-.5-.29-1.08-.43-1.74-.43s-1.3,.16-1.83,.47-.94,.74-1.24,1.27c-.3,.53-.45,1.12-.46,1.76v2.67c0,.81,.15,1.51,.45,2.1s.73,1.04,1.28,1.36c.55,.32,1.21,.48,1.97,.48,.5,0,.96-.07,1.38-.21,.42-.14,.78-.35,1.08-.64,.3-.28,.53-.63,.68-1.04l4.2,.28c-.21,1.01-.65,1.89-1.3,2.64-.66,.75-1.5,1.33-2.54,1.75s-2.22,.62-3.57,.62Z"/><path class="e" d="M182.13,25.91V9.55h4.33v2.89h.19c.34-.96,.91-1.72,1.71-2.27,.79-.55,1.75-.83,2.85-.83s2.08,.28,2.87,.84,1.31,1.31,1.58,2.26h.17c.33-.94,.94-1.69,1.82-2.25,.88-.56,1.92-.85,3.12-.85,1.53,0,2.77,.48,3.72,1.45,.96,.97,1.43,2.34,1.43,4.12v11h-4.53V15.8c0-.91-.24-1.59-.72-2.05-.48-.45-1.09-.68-1.81-.68-.82,0-1.47,.26-1.93,.78-.46,.52-.69,1.21-.69,2.06v9.99h-4.4V15.7c0-.8-.23-1.44-.69-1.92-.46-.48-1.06-.71-1.81-.71-.5,0-.96,.13-1.36,.38s-.72,.6-.95,1.05-.35,.98-.35,1.58v9.82h-4.54Z"/><path class="e" d="M214.15,26.22c-1.04,0-1.97-.18-2.79-.55-.82-.37-1.46-.91-1.93-1.63-.47-.72-.71-1.62-.71-2.7,0-.91,.17-1.67,.5-2.29,.33-.62,.79-1.11,1.36-1.49,.58-.38,1.23-.66,1.97-.85s1.51-.33,2.32-.4c.95-.1,1.72-.19,2.3-.28s1-.22,1.27-.4c.26-.18,.39-.44,.39-.79v-.06c0-.67-.21-1.2-.63-1.57s-1.02-.55-1.79-.55c-.82,0-1.47,.18-1.95,.54-.48,.36-.8,.81-.96,1.35l-4.2-.34c.21-.99,.63-1.86,1.26-2.58s1.43-1.29,2.42-1.68c.99-.39,2.14-.59,3.45-.59,.91,0,1.78,.11,2.62,.32,.83,.21,1.58,.54,2.23,.99,.65,.45,1.16,1.02,1.54,1.72,.38,.7,.56,1.54,.56,2.51v11.04h-4.3v-2.27h-.13c-.26,.51-.61,.96-1.05,1.35s-.97,.69-1.59,.91c-.62,.22-1.33,.33-2.14,.33Zm1.3-3.13c.67,0,1.26-.13,1.77-.4,.51-.27,.91-.63,1.2-1.08,.29-.45,.44-.97,.44-1.54v-1.74c-.14,.09-.34,.18-.58,.25s-.52,.14-.83,.2c-.31,.06-.61,.11-.92,.16-.31,.05-.58,.09-.83,.12-.53,.08-1,.2-1.4,.37-.4,.17-.71,.4-.93,.69-.22,.29-.33,.64-.33,1.07,0,.62,.23,1.09,.68,1.41,.45,.32,1.02,.48,1.72,.48Z"/><path class="e" d="M234.27,32.39c-1.47,0-2.73-.2-3.78-.6-1.05-.4-1.88-.95-2.5-1.64-.62-.69-1.02-1.46-1.2-2.32l4.2-.56c.13,.33,.33,.63,.61,.92,.28,.28,.64,.51,1.1,.69,.46,.17,1.02,.26,1.68,.26,.99,0,1.8-.24,2.45-.72,.64-.48,.96-1.28,.96-2.4v-2.99h-.19c-.2,.45-.5,.88-.89,1.29-.4,.41-.91,.74-1.53,.99-.62,.26-1.37,.38-2.24,.38-1.23,0-2.35-.29-3.35-.86s-1.8-1.45-2.4-2.63c-.59-1.18-.89-2.68-.89-4.49s.3-3.4,.91-4.65c.6-1.24,1.41-2.17,2.41-2.79,1-.62,2.11-.93,3.31-.93,.92,0,1.68,.15,2.3,.46,.62,.31,1.12,.69,1.5,1.15,.38,.46,.67,.91,.88,1.35h.17v-2.75h4.51V26.07c0,1.39-.34,2.56-1.02,3.49s-1.62,1.64-2.83,2.11c-1.2,.47-2.59,.71-4.15,.71Zm.1-10.12c.73,0,1.35-.18,1.86-.55s.9-.89,1.17-1.58c.27-.69,.41-1.51,.41-2.47s-.13-1.79-.4-2.5c-.27-.71-.66-1.26-1.17-1.65-.51-.39-1.13-.59-1.86-.59s-1.38,.2-1.89,.6c-.51,.4-.9,.96-1.16,1.67-.26,.71-.39,1.53-.39,2.46s.13,1.76,.4,2.44,.65,1.21,1.16,1.59c.51,.37,1.13,.56,1.88,.56Z"/><path class="e" d="M248.17,7.44c-.67,0-1.25-.22-1.73-.67-.48-.45-.72-.99-.72-1.62s.24-1.17,.72-1.62c.48-.45,1.06-.68,1.73-.68s1.25,.22,1.73,.67c.48,.45,.72,.99,.72,1.62s-.24,1.17-.72,1.62-1.06,.68-1.73,.68Zm-2.28,18.47V9.55h4.54V25.91h-4.54Z"/><path class="e" d="M261.44,26.23c-1.68,0-3.12-.36-4.32-1.07s-2.13-1.71-2.77-2.98c-.64-1.27-.96-2.73-.96-4.39s.33-3.15,.97-4.42c.65-1.27,1.58-2.26,2.78-2.97,1.2-.71,2.63-1.07,4.28-1.07,1.43,0,2.68,.26,3.75,.78,1.07,.52,1.92,1.25,2.55,2.18s.97,2.04,1.03,3.3h-4.28c-.12-.82-.44-1.48-.95-1.98-.51-.5-1.19-.75-2.02-.75-.7,0-1.32,.19-1.84,.57-.52,.38-.93,.93-1.22,1.66-.29,.72-.44,1.6-.44,2.63s.14,1.93,.43,2.66c.29,.73,.69,1.29,1.22,1.67,.53,.38,1.14,.58,1.84,.58,.52,0,.99-.11,1.4-.32,.42-.21,.76-.52,1.03-.93,.27-.41,.45-.9,.54-1.48h4.28c-.07,1.25-.41,2.35-1.02,3.3s-1.44,1.69-2.51,2.22-2.33,.8-3.78,.8Z"/></g></g></g></svg>